<svg width="15" height="15" viewBox="0 0 15 15" fill="none" xmlns="http://www.w3.org/2000/svg">
<path fill-rule="evenodd" clip-rule="evenodd" d="M0.473094 0.0816245C0.275893 0.172628 0.151771 0.301597 0.0676928 0.502913C-0.0118232 0.693149 -0.0119451 0.822525 0.0671635 1.01415C0.110995 1.12043 1.07411 2.11051 3.29522 4.33268L6.46079 7.49975L3.27669 10.6874C-0.154316 14.1224 -0.045919 14.0002 0.0207246 14.3555C0.0752697 14.6463 0.353698 14.9247 0.64451 14.9793C0.999766 15.0459 0.877681 15.1543 4.31243 11.7234L7.5 8.53945L10.6876 11.7234C14.1223 15.1543 14.0002 15.0459 14.3555 14.9793C14.6463 14.9247 14.9247 14.6463 14.9793 14.3555C15.0459 14.0002 15.1543 14.1223 11.7234 10.6876L8.53945 7.5L11.7234 4.31243C15.1543 0.877681 15.0459 0.999766 14.9793 0.64451C14.9247 0.353698 14.6463 0.0752697 14.3555 0.0207246C14.0002 -0.045919 14.1224 -0.154316 10.6874 3.27669L7.49975 6.46079L4.33268 3.29522C2.11051 1.07411 1.12043 0.110995 1.01415 0.0671635C0.816455 -0.0144708 0.672944 -0.010601 0.473094 0.0816245Z" fill="#0B2052"/>
</svg>
