<svg width="14" height="7" viewBox="0 0 14 7" fill="none" xmlns="http://www.w3.org/2000/svg">
<path fill-rule="evenodd" clip-rule="evenodd" d="M13.6304 6.94186C13.896 6.83602 14.0443 6.55955 13.9882 6.27449C13.9644 6.1533 13.5899 5.79817 10.6335 3.0933C7.67699 0.388466 7.28882 0.0458145 7.15636 0.0240211C6.77921 -0.0380478 6.99828 -0.216141 3.381 3.0933C-0.235245 6.40179 -0.0430508 6.20395 0.0270185 6.54558C0.0637236 6.72465 0.30161 6.9423 0.497343 6.97588C0.869204 7.03973 0.68198 7.19021 3.97512 4.18031L7.00747 1.40871L10.0197 4.16284C11.7068 5.70536 13.0812 6.93371 13.1439 6.95499C13.2936 7.00589 13.4825 7.0008 13.6304 6.94186Z" fill="white"/>
</svg>
