<svg width="200" height="52" fill="none" xmlns="http://www.w3.org/2000/svg"><g clip-path="url(#clip0_41_89)"><path d="M2.252 29.523a8.298 8.298 0 013.709-12.907L51.484.55a4.245 4.245 0 014.675 1.291 4.378 4.378 0 01.318 5.179L30.153 47.755a8.092 8.092 0 01-13.245.596L2.252 29.523z" fill="url(#paint0_linear_41_89)"/><path d="M28.556 21.192h-6.622v-3.709h17.708v3.709H33.02V38.41h-4.464V21.192z" fill="#fff"/><path d="M47.377 38.782c-1.836 0-3.216-.52-4.139-1.557-.927-1.06-1.39-2.682-1.39-4.88v-9.789h3.907v9.232a4.583 4.583 0 00.662 2.722 2.861 2.861 0 002.371.9 3.312 3.312 0 001.543-.31 2.84 2.84 0 001.63-1.941c.128-.445.188-.907.178-1.37v-9.272h3.9V38.41h-3.602v-2.325a5.092 5.092 0 01-1.808 1.888 5.794 5.794 0 01-3.252.808zm12.226-16.226h3.609v2.338a5.02 5.02 0 011.801-1.887 6.238 6.238 0 013.404-.808c1.907 0 3.311.516 4.258 1.556.948 1.04 1.418 2.537 1.418 4.49v10.166h-3.894v-9.272a4.174 4.174 0 00-.742-2.689 2.954 2.954 0 00-2.457-.9 3.835 3.835 0 00-1.596.298c-.417.19-.79.465-1.093.808a3.167 3.167 0 00-.649 1.159c-.12.43-.18.877-.179 1.324v9.272h-3.88V22.556zm18.198 0h3.901v15.855h-3.9V22.556zm1.987-1.496a2.36 2.36 0 01-1.715-.663 2.42 2.42 0 01-.662-1.741 2.308 2.308 0 01.662-1.702 2.273 2.273 0 011.715-.663 2.182 2.182 0 011.682.663 2.249 2.249 0 01.662 1.702 2.365 2.365 0 01-.662 1.741 2.263 2.263 0 01-1.735.663h.053zm5.808 1.496h3.61v2.338a5.022 5.022 0 011.8-1.887 6.232 6.232 0 013.398-.808c1.916 0 3.336.518 4.258 1.556.923 1.038 1.398 2.534 1.424 4.49v10.166h-3.907v-9.272a4.171 4.171 0 00-.815-2.689 2.954 2.954 0 00-2.457-.9 3.815 3.815 0 00-1.596.298 3.084 3.084 0 00-1.688 1.967c-.12.43-.18.877-.18 1.324v9.272h-3.9l.053-15.855zm24.702 22.212c-1.066.02-2.13-.1-3.166-.357a5.724 5.724 0 01-2.099-.987 4.234 4.234 0 01-1.212-1.53 6.446 6.446 0 01-.47-1.987h3.974c.06.22.149.432.264.63.137.216.32.4.537.536.266.195.567.336.887.417.433.112.878.163 1.325.152 2.622 0 3.934-1.278 3.934-3.834v-1.867a6.162 6.162 0 01-1.987 1.854 5.604 5.604 0 01-2.808.662 6.247 6.247 0 01-4.881-1.987c-1.179-1.324-1.768-3.311-1.768-5.96v-.603c0-2.47.596-4.364 1.801-5.682a6.2 6.2 0 014.848-1.987 5.868 5.868 0 013.106.769c.77.461 1.41 1.11 1.861 1.887v-2.338h3.636v14.967c0 2.358-.65 4.155-1.948 5.391-1.284 1.232-3.245 1.854-5.887 1.854h.053zm-.02-9.669a3.644 3.644 0 002.899-1.104 3.651 3.651 0 001.002-2.935v-1.768a3.448 3.448 0 00-1.126-2.782 4.04 4.04 0 00-2.775-.96 3.354 3.354 0 00-2.602 1.106 4.63 4.63 0 00-1.007 3.232v.576a5.088 5.088 0 001.033 3.47 3.312 3.312 0 002.576 1.165zm23.325 3.623a10.66 10.66 0 01-3.252-.45 7.016 7.016 0 01-2.331-1.225 6.294 6.294 0 01-1.51-1.855 8.308 8.308 0 01-.741-2.304h2.781c.1.464.27.91.503 1.324.245.407.567.763.947 1.046.459.32.967.562 1.504.716.686.17 1.392.25 2.099.238a6.207 6.207 0 003.755-.954 2.85 2.85 0 001.324-2.364 3.268 3.268 0 00-.298-1.47 2.47 2.47 0 00-.947-1.046 6.805 6.805 0 00-1.741-.808c-.709-.239-1.59-.477-2.649-.722a26.444 26.444 0 01-3.02-.835 7.275 7.275 0 01-2.066-1.165 4.68 4.68 0 01-1.212-1.682 6.67 6.67 0 01-.391-2.424 4.757 4.757 0 01.503-2.16 5.341 5.341 0 011.424-1.76 7.063 7.063 0 012.278-1.173 9.69 9.69 0 013.04-.444 8.57 8.57 0 012.901.444 6.13 6.13 0 012.099 1.172 5.518 5.518 0 011.391 1.762c.342.68.581 1.408.708 2.159h-2.781a4.554 4.554 0 00-.444-1.166 2.644 2.644 0 00-.828-.96 3.704 3.704 0 00-1.271-.662 5.786 5.786 0 00-1.775-.239 5.35 5.35 0 00-3.311.901 2.576 2.576 0 00-1.153 2.093c-.011.485.091.965.298 1.404.218.418.532.778.914 1.053.49.314 1.018.565 1.57.748.649.199 1.417.397 2.305.596 1.127.233 2.234.554 3.311.96a6.95 6.95 0 012.245 1.259 4.224 4.224 0 011.278 1.735c.295.775.437 1.6.417 2.43.003.8-.18 1.589-.536 2.305a5.643 5.643 0 01-1.537 1.854 7.693 7.693 0 01-2.457 1.225 11.182 11.182 0 01-3.344.444zm17.007-.152c-1.674 0-2.886-.378-3.636-1.133a4.97 4.97 0 01-1.093-3.503v-9.04h-2.364v-2.338h2.364v-3.589h2.603v3.59h4.198v2.337h-4.198v8.742a2.763 2.763 0 00.563 1.94c.371.404 1.092.603 2.159.603.59-.001 1.18-.032 1.768-.093v2.325c-.371.04-.748.066-1.119.086-.414.046-.829.07-1.245.073zm12.582.152a8.568 8.568 0 01-2.867-.477 7.03 7.03 0 01-2.398-1.497 7.503 7.503 0 01-1.655-2.543 9.385 9.385 0 01-.623-3.563v-.602a8.563 8.563 0 01.623-3.384 6.97 6.97 0 011.655-2.424 6.568 6.568 0 012.398-1.464 8.317 8.317 0 015.735 0 6.63 6.63 0 012.391 1.464 6.956 6.956 0 011.655 2.424 8.563 8.563 0 01.623 3.384v.602a9.366 9.366 0 01-.623 3.563 7.488 7.488 0 01-1.655 2.543 7.059 7.059 0 01-2.391 1.497 8.607 8.607 0 01-2.868.477zm0-2.397a5.574 5.574 0 001.775-.298 4.447 4.447 0 001.563-.987 4.883 4.883 0 001.093-1.768 6.88 6.88 0 00.444-2.65v-.602a6.065 6.065 0 00-.444-2.45 4.757 4.757 0 00-1.093-1.683 4.097 4.097 0 00-1.563-.953 5.571 5.571 0 00-1.775-.298 5.51 5.51 0 00-1.774.298 4.08 4.08 0 00-1.57.953 5.206 5.206 0 00-1.126 1.683 6.584 6.584 0 00-.41 2.45v.603c-.025.9.114 1.798.41 2.649a5.334 5.334 0 001.126 1.768 4.41 4.41 0 001.57.987 5.51 5.51 0 001.774.298zm11.219-13.769h2.411v2.994a5.086 5.086 0 011.655-2.331 4.385 4.385 0 012.868-.96 6.02 6.02 0 01.947.059c.224.035.445.086.662.152v2.45a3.663 3.663 0 00-.768-.205 6.405 6.405 0 00-1.007-.06 4.19 4.19 0 00-1.655.325 4.116 4.116 0 00-2.206 2.338 4.964 4.964 0 00-.331 1.828v9.265h-2.603l.027-15.855zm17.742 16.166a8.607 8.607 0 01-2.868-.477 6.623 6.623 0 01-2.397-1.47 7.451 7.451 0 01-1.656-2.543 9.543 9.543 0 01-.622-3.59v-.602a8.853 8.853 0 01.596-3.41 6.93 6.93 0 011.549-2.425 6.522 6.522 0 012.312-1.47c.89-.32 1.829-.48 2.774-.477 2.305 0 4.093.663 5.351 1.914 1.259 1.252 1.894 3.086 1.894 5.418v1.682h-11.874c-.022.81.13 1.616.444 2.364a4.389 4.389 0 002.722 2.424 6.096 6.096 0 001.775.265 5.154 5.154 0 002.722-.596 3.313 3.313 0 001.384-1.65h2.543a5.157 5.157 0 01-.855 1.987 5.567 5.567 0 01-1.476 1.47 6.752 6.752 0 01-1.987.868 8.877 8.877 0 01-2.331.318zM192 24.656a5.865 5.865 0 00-1.768.265 4.116 4.116 0 00-1.543.808c-.446.38-.807.849-1.06 1.377a4.494 4.494 0 00-.417 1.987h9.431a5.145 5.145 0 00-.411-2.066 3.506 3.506 0 00-.973-1.378 3.782 3.782 0 00-1.484-.775 6.35 6.35 0 00-1.775-.218z" fill="#0B2052"/><path d="M186.564 17.43a3.704 3.704 0 01-2.219-.602 2.59 2.59 0 01-1.02-1.868h1.927c.081.229.237.423.444.55.519.201 1.092.22 1.623.053.226-.09.425-.239.576-.43a2.53 2.53 0 00.397-.868 6.47 6.47 0 00.199-1.39c-.12.18-.27.34-.444.47a2.668 2.668 0 01-.576.31c-.216.075-.437.13-.662.166a3.787 3.787 0 01-.663.053 3.014 3.014 0 01-2.245-.795 3.11 3.11 0 01-.781-2.271v-.152a3.456 3.456 0 01.258-1.325 3.108 3.108 0 011.835-1.728 4.047 4.047 0 011.417-.239 3.58 3.58 0 012.808 1.093c.649.72.973 1.898.973 3.536v.265a8.654 8.654 0 01-.284 2.398 4.424 4.424 0 01-.841 1.576 3.084 3.084 0 01-1.226.92c-.477.186-.984.28-1.496.278zm.205-5.172a1.535 1.535 0 001.152-.417 1.453 1.453 0 00.431-1.086v-.159a1.47 1.47 0 00-.444-1.086 1.513 1.513 0 00-1.139-.43 1.562 1.562 0 00-1.172.43 1.494 1.494 0 00-.411 1.086v.139a1.494 1.494 0 00.411 1.086 1.588 1.588 0 001.172.437zm8.808 5.172a4.455 4.455 0 01-1.609-.264 2.918 2.918 0 01-1.186-.822 4.04 4.04 0 01-.741-1.45 7.735 7.735 0 01-.252-2.093v-.278a8.386 8.386 0 01.291-2.364 4.45 4.45 0 01.815-1.623 2.993 2.993 0 011.238-.9 4.133 4.133 0 011.583-.298 3.696 3.696 0 012.179.609 2.583 2.583 0 011.006 1.894h-1.927a1.236 1.236 0 00-1.324-.709 2.106 2.106 0 00-.742.126 1.32 1.32 0 00-.589.43c-.19.254-.327.542-.404.848a6.523 6.523 0 00-.192 1.398c.114-.184.265-.342.443-.464.171-.13.361-.232.563-.305a3.38 3.38 0 01.663-.185c.219-.033.44-.05.662-.053a2.962 2.962 0 012.238.808 3.079 3.079 0 01.788 2.258v.153a3.33 3.33 0 01-.265 1.324c-.167.4-.415.76-.728 1.06a3.077 3.077 0 01-1.099.662 4.083 4.083 0 01-1.411.238zm-.139-1.755a1.564 1.564 0 001.132-.443 1.521 1.521 0 00.424-1.106v-.14a1.455 1.455 0 00-.424-1.085 1.559 1.559 0 00-1.159-.418 1.6 1.6 0 00-1.172.418 1.493 1.493 0 00-.41 1.086v.139c-.014.408.133.805.41 1.106a1.598 1.598 0 001.199.443z" fill="#3873F2"/><path d="M41.848 22.556v7.1l3.907-6.047v-1.053h-3.907z" fill="#fff"/></g><defs><linearGradient id="paint0_linear_41_89" x1="8.537" y1="39.417" x2="60.676" y2=".311" gradientUnits="userSpaceOnUse"><stop stop-color="#5384F8"/><stop offset="1" stop-color="#0DCDFA"/></linearGradient><clipPath id="clip0_41_89"><path fill="#fff" d="M0 0h200v51.656H0z"/></clipPath></defs></svg>